<?xml version="1.0" encoding="UTF-8" standalone="no"?>
<!-- Created with Inkscape (http://www.inkscape.org/) -->

<svg
   width="210mm"
   height="297mm"
   viewBox="0 0 210 297"
   version="1.1"
   id="svg5"
   xml:space="preserve"
   inkscape:version="1.2.1 (9c6d41e410, 2022-07-14, custom)"
   sodipodi:docname="OSCAR TENORIO LOGO.svg"
   inkscape:export-filename="logo_oscar_tenorio"
   inkscape:export-xdpi="300"
   inkscape:export-ydpi="300"
   xmlns:inkscape="http://www.inkscape.org/namespaces/inkscape"
   xmlns:sodipodi="http://sodipodi.sourceforge.net/DTD/sodipodi-0.dtd"
   xmlns="http://www.w3.org/2000/svg"
   xmlns:svg="http://www.w3.org/2000/svg"><sodipodi:namedview
     id="namedview7"
     pagecolor="#ffffff"
     bordercolor="#999999"
     borderopacity="1"
     inkscape:showpageshadow="0"
     inkscape:pageopacity="0"
     inkscape:pagecheckerboard="0"
     inkscape:deskcolor="#d1d1d1"
     inkscape:document-units="mm"
     showgrid="false"
     inkscape:zoom="0.86590909"
     inkscape:cx="344.14698"
     inkscape:cy="620.15748"
     inkscape:window-width="1366"
     inkscape:window-height="695"
     inkscape:window-x="0"
     inkscape:window-y="0"
     inkscape:window-maximized="1"
     inkscape:current-layer="layer2"
     showguides="false" /><defs
     id="defs2" /><g
     inkscape:groupmode="layer"
     id="layer2"
     inkscape:label="Camada 2"
     style="display:inline"><rect
       style="fill:#ffffff;stroke:none;stroke-width:0.962652;paint-order:stroke markers fill"
       id="rect476"
       width="149.03734"
       height="149.03735"
       x="30.481331"
       y="73.981323" /><path
       id="path291"
       style="display:inline;fill:#00294d;stroke-width:0.264583"
       d="m 149.14681,147.50137 a 42.118706,42.118706 0 0 1 -42.1187,42.11871 42.118706,42.118706 0 0 1 -42.118709,-42.11871 42.118706,42.118706 0 0 1 42.118709,-42.1187 42.118706,42.118706 0 0 1 42.1187,42.1187 z" /><g
       id="path1248"><path
         style="color:#000000;fill:#97001a;stroke-width:0.6;-inkscape-stroke:none"
         d="m 97.139283,124.22751 25.342407,-0.0717 -12.57499,46.97031 z"
         id="path364" /><path
         style="color:#000000;fill:#ffffff;-inkscape-stroke:none"
         d="m 122.87305,123.85547 -26.126956,0.0723 0.103515,0.37891 13.058591,47.9707 z m -0.78321,0.60156 -12.18554,45.51953 -12.371097,-45.45117 z"
         id="path366" /></g><g
       id="path327"
       inkscape:label="path327"
       inkscape:transform-center-x="-12.950464"
       inkscape:transform-center-y="23.407352"
       style="display:inline;fill:#990038;fill-opacity:1"><path
         style="color:#000000;fill:#990038;stroke-width:0.6;-inkscape-stroke:none;fill-opacity:1"
         d="m 89.560942,127.13591 0.513147,1.82366 12.990421,45.06753 2.85254,-11.33109 -10.066053,-35.55183 z"
         id="path894" /><path
         style="color:#000000;fill:#ffffff;-inkscape-stroke:none;fill-opacity:1"
         d="m 89.164062,126.83594 0.107422,0.38086 0.513672,1.82422 13.298824,46.13671 3.14454,-12.48632 -10.150395,-35.84766 z m 0.792969,0.59961 5.667969,0.008 9.98242,35.25781 -2.5625,10.17188 -12.681639,-43.9961 z"
         id="path896" /></g><path
       id="circle970"
       style="display:inline;fill:#00294d;fill-opacity:1;stroke-width:0.390461"
       d="m 107.02809,85.344145 c -34.32847,1.32e-4 -62.157081,27.955805 -62.156927,62.284275 1.3e-4,34.32827 27.818937,61.62372 62.147207,61.62385 34.32827,-1.3e-4 61.59244,-27.42241 61.59257,-61.75068 1.5e-4,-34.32847 -27.25438,-62.157315 -61.58285,-62.157445 z m 0.038,2.663817 c 32.74607,-2.5e-5 59.25405,26.747558 59.25403,59.493628 -2.6e-4,32.74587 -26.50902,59.12032 -59.25489,59.12029 -32.745865,3e-5 -59.668714,-26.37442 -59.668977,-59.12029 -2.2e-5,-32.74607 26.923769,-59.493651 59.669837,-59.493628 z"
       sodipodi:nodetypes="cscscccscc" /><g
       id="g376"
       style="display:inline"><path
         style="color:#000000;display:inline;fill:#00294d;-inkscape-stroke:none;paint-order:stroke markers fill"
         d="m 120.20508,135.45312 -0.44141,0.0176 -0.11328,0.42578 c -0.45515,1.69864 -0.92773,3.51758 -0.92773,3.51758 l -0.22266,0.85742 0.87695,-0.11132 c 0,0 5.2709,-0.53161 7.95118,2.0039 0.1646,0.46792 0.0383,1.02498 -0.61329,1.8086 -0.69527,0.83614 -1.92464,1.79825 -3.57031,2.76171 -3.29134,1.92694 -8.24192,3.88742 -14.01562,5.38086 -5.77331,1.49338 -11.278424,2.23785 -15.466801,2.24024 -2.094188,0.001 -3.860766,-0.18513 -5.140625,-0.53711 -1.279858,-0.35198 -2.009369,-0.8718 -2.230468,-1.35742 -0.09784,-0.21497 -0.104472,-0.42095 -0.0098,-0.71094 0.09471,-0.28999 0.307489,-0.64309 0.621094,-1.01367 0.627209,-0.74116 1.639932,-1.54235 2.703125,-2.25391 2.126385,-1.42311 4.439453,-2.50586 4.439453,-2.50586 l 0.457031,-0.21484 -1.277344,-4.66602 -0.623047,0.2461 c 0,0 -4.36539,1.72961 -8.458984,4.58203 -2.046797,1.42621 -4.036513,3.13436 -5.390625,5.0957 -1.34914,1.95414 -2.055983,4.21197 -1.431641,6.57813 0.331889,1.97201 1.56111,3.63865 3.410157,4.91796 1.860315,1.28712 4.348044,2.21821 7.298828,2.80079 5.901568,1.16515 13.669967,0.9285 21.984377,-0.94922 8.31449,-1.87773 15.60589,-5.04415 20.71289,-8.68946 2.5535,-1.82265 4.56268,-3.76454 5.87696,-5.7539 1.31427,-1.98936 1.93775,-4.05313 1.61523,-6.04102 l -0.01,-0.0586 -0.0215,-0.0547 c -1.32083,-3.52857 -4.23644,-5.69705 -7.57617,-6.91797 -3.33974,-1.22091 -7.1294,-1.53354 -10.40625,-1.39844 z m 0.48242,1.2129 c 3.06291,-0.0869 6.5225,0.21972 9.51172,1.3125 3.10132,1.13376 5.64283,3.04891 6.83008,6.14648 0.2455,1.60507 -0.23647,3.3365 -1.42578,5.13672 -1.20098,1.81786 -3.10715,3.67849 -5.57422,5.43945 -4.93415,3.52192 -12.10124,6.64918 -20.2793,8.4961 -8.17799,1.84691 -15.814494,2.06158 -21.488281,0.9414 -2.836894,-0.56009 -5.178389,-1.4564 -6.847657,-2.61133 -1.669267,-1.15492 -2.659089,-2.53611 -2.921875,-4.15429 l -0.0059,-0.0312 -0.0078,-0.0293 c -0.530715,-1.98065 0.0366,-3.83682 1.261718,-5.61133 1.225121,-1.7745 3.112073,-3.41426 5.087891,-4.79101 3.488951,-2.43111 6.77537,-3.83054 7.601562,-4.17383 l 0.658204,2.40625 c -0.396497,0.18875 -2.139824,0.9975 -4.148438,2.34179 -1.113093,0.74496 -2.195657,1.58149 -2.953125,2.47657 -0.378734,0.44754 -0.680941,0.91152 -0.845703,1.41601 -0.164762,0.5045 -0.173614,1.06991 0.05859,1.58008 0.462143,1.01505 1.562319,1.62059 3.005859,2.01758 1.443541,0.39699 3.294306,0.58327 5.458984,0.58203 4.329358,-0.002 9.907461,-0.76397 15.765631,-2.2793 5.85857,-1.5154 10.88567,-3.49584 14.32226,-5.50781 1.7183,-1.00598 3.04019,-2.0136 3.88477,-3.0293 0.84457,-1.0157 1.23931,-2.16059 0.77734,-3.17578 l -0.0449,-0.0996 -0.0762,-0.0762 c -2.83434,-2.83434 -7.03131,-2.53795 -8.21289,-2.42187 0.1175,-0.45095 0.31251,-1.19175 0.60742,-2.30078 z"
         id="path51315" /><path
         style="color:#000000;display:inline;fill:#ffffff;stroke-width:1.2;-inkscape-stroke:none;paint-order:stroke markers fill"
         d="m 120.44424,136.05164 c -0.45429,1.69542 -0.92645,3.514 -0.92645,3.514 0,0 5.40148,-0.70252 8.35089,2.24689 1.36593,3.00165 -6.95676,7.87421 -18.58905,10.88306 -11.631492,3.0087 -22.167988,3.01474 -23.534476,0.0134 -1.320199,-2.90055 7.867622,-7.27632 7.867622,-7.27632 l -0.967369,-3.53249 c 0,0 -17.080322,6.85553 -14.745769,15.5682 1.171199,7.21201 15.490122,10.03899 31.982542,6.31435 16.49257,-3.72464 29.58561,-12.82874 27.74353,-19.80293 -1.84208,-6.97419 -10.74393,-8.19359 -17.18147,-7.92816 z"
         id="path51317"
         sodipodi:nodetypes="ccccccccszc" /></g><g
       id="g3555"
       inkscape:label="Oscar Tenório"
       style="fill:#053259;fill-opacity:1"><path
         d="m 55.738129,142.9883 q 3.114599,-0.20571 5.469537,1.876 2.354938,2.08171 2.561949,5.21602 0.207011,3.13431 -1.853685,5.50766 -2.080409,2.37465 -5.21472,2.58166 -3.154024,0.20832 -5.507661,-1.85368 -2.354937,-2.08171 -2.56325,-5.23574 -0.210917,-3.19345 1.852383,-5.52737 2.061998,-2.35363 5.255447,-2.56455 z m 0.160324,2.12766 q -2.365518,0.15624 -3.918526,1.8229 -1.553009,1.66667 -1.398076,4.01247 0.111968,1.69529 1.065254,2.93904 0.951984,1.22403 2.55355,1.79141 1.21661,0.43441 2.359944,0.3589 1.143333,-0.0755 2.331667,-0.66877 1.492018,-0.79149 2.274748,-2.1301 0.761715,-1.35702 0.651049,-3.03259 -0.118478,-1.79386 -1.151917,-3.05211 -1.054453,-1.27666 -2.791403,-1.7955 -0.990657,-0.31074 -1.97629,-0.24565 z"
         style="font-size:19.7556px;font-family:'ITC Avant Garde Gothic Std';-inkscape-font-specification:'ITC Avant Garde Gothic Std';fill:#00294d;fill-opacity:1;stroke-width:0.264583"
         id="path3408" /><path
         d="m 61.066172,132.18185 q 1.926006,0.34012 2.931778,1.80164 0.986317,1.45809 0.646209,3.3841 -0.346978,1.96492 -1.850851,2.98326 -1.500436,0.99891 -3.465351,0.65193 l 0.371028,-2.1011 q 1.108912,0.19582 1.977575,-0.29274 0.849209,-0.492 1.041594,-1.58146 0.188948,-1.07 -0.382029,-1.81279 -0.570977,-0.74279 -1.64098,-0.93174 -0.525274,-0.0927 -0.92583,0.0171 -0.416576,0.0869 -0.708434,0.37644 -0.307877,0.26661 -0.548242,0.60532 -0.236928,0.31927 -0.491035,0.73581 -0.05952,0.10985 -0.08928,0.16478 -0.425801,0.7072 -0.623822,1.03334 -0.214039,0.30324 -0.60892,0.83535 -0.394883,0.5321 -0.715343,0.75637 -0.320461,0.22427 -0.783975,0.4634 -0.482967,0.2357 -1.051745,0.27568 -0.565344,0.0205 -1.246252,-0.0997 -1.653641,-0.29201 -2.575882,-1.65854 -0.918805,-1.38599 -0.623358,-3.05909 0.319496,-1.80927 1.631098,-2.76128 1.295585,-0.97489 3.104863,-0.65539 l -0.371027,2.10109 q -0.933822,-0.1649 -1.594197,0.2802 -0.679831,0.44167 -0.844732,1.37549 -0.137417,0.77818 0.343159,1.46489 0.484009,0.66724 1.281648,0.80809 0.622547,0.10994 1.112389,-0.16463 0.470384,-0.27805 0.819487,-0.77811 0.352536,-0.51953 0.706232,-1.15921 0.334241,-0.64312 0.785209,-1.26563 0.431514,-0.62594 0.975163,-1.09165 0.547082,-0.48518 1.426014,-0.69107 0.878931,-0.20589 1.987843,-0.0101 z"
         style="font-size:19.7556px;font-family:'ITC Avant Garde Gothic Std';-inkscape-font-specification:'ITC Avant Garde Gothic Std';fill:#00294d;fill-opacity:1;stroke-width:0.264583"
         id="path3410" /><path
         d="m 63.235353,113.86816 -1.233739,2.25248 q -2.646623,0.55509 -3.775969,2.61698 -1.100874,2.00991 -0.421974,4.18375 0.688392,2.15652 2.715627,3.26688 1.992581,1.09138 4.232419,0.53873 2.24933,-0.56998 3.331223,-2.54523 0.540947,-0.98763 0.593436,-2.1527 0.04465,-1.19189 -0.374422,-2.27736 l 1.262209,-2.30447 q 1.108407,1.80092 1.164765,3.8365 0.06585,2.01825 -0.940125,3.8549 -1.489977,2.7203 -4.528145,3.57901 -3.046004,0.83189 -5.783639,-0.66758 -2.754962,-1.50895 -3.624813,-4.48565 -0.860361,-2.99402 0.639105,-5.73166 1.195778,-2.18318 3.392338,-3.23255 1.467536,-0.70537 3.351704,-0.73203 z"
         style="font-size:19.7556px;font-family:'ITC Avant Garde Gothic Std';-inkscape-font-specification:'ITC Avant Garde Gothic Std';fill:#00294d;fill-opacity:1;stroke-width:0.264583"
         id="path3412" /><path
         d="m 83.24813,110.57057 -1.780622,1.41098 -3.944403,-2.36934 -4.118657,3.26367 1.405082,4.38154 -1.765139,1.39872 -4.72849,-14.90564 1.501915,-1.19013 z m -7.512599,-2.03727 -4.927722,-3.22855 -0.03097,0.0246 2.001309,5.54748 z"
         style="font-size:19.7556px;font-family:'ITC Avant Garde Gothic Std';-inkscape-font-specification:'ITC Avant Garde Gothic Std';fill:#00294d;fill-opacity:1;stroke-width:0.264583"
         id="path3414" /><path
         d="m 89.158705,96.649133 q 1.395287,2.902175 -0.669376,4.990817 -0.574545,0.58311 -1.162102,0.86559 l 6.048158,3.14219 -2.403643,1.1556 -7.280455,-4.01837 -0.03561,0.0171 2.936095,6.10703 -1.922913,0.92448 -6.334435,-13.175522 4.07729,-1.96025 q 2.385837,-1.147046 4.038259,-0.582435 1.767127,0.575226 2.708732,2.53375 z m -1.922913,0.924485 q -0.573524,-1.192919 -1.727753,-1.405203 -1.144986,-0.238649 -2.373514,0.351994 l -2.029742,0.975846 2.422493,5.038745 1.317552,-0.63344 q 0.71219,-0.3424 1.248387,-0.73171 0.527637,-0.40712 0.951183,-0.93955 0.423547,-0.532436 0.487231,-1.220658 0.06369,-0.688225 -0.295837,-1.436024 z"
         style="font-size:19.7556px;font-family:'ITC Avant Garde Gothic Std';-inkscape-font-specification:'ITC Avant Garde Gothic Std';fill:#00294d;fill-opacity:1;stroke-width:0.264583"
         id="path3416" /><path
         d="m 124.08427,93.38491 -2.88802,-0.597898 -2.79112,12.606268 -2.19651,-0.45475 2.79112,-12.606257 -2.88801,-0.5979 0.43108,-1.946989 7.97253,1.650537 z"
         style="font-size:19.7556px;letter-spacing:-0.994833px;word-spacing:0px;fill:#053259;fill-opacity:1;stroke-width:0.273919"
         id="path3418" /><path
         d="m 129.43069,110.57226 -7.09328,-3.76073 6.97481,-13.155491 7.09329,3.760747 -0.93311,1.759991 -5.17331,-2.742801 -2.05474,3.875524 5.1733,2.7428 -0.93312,1.76 -5.1733,-2.7428 -2.12072,3.99997 5.1733,2.74281 z"
         style="font-size:19.7556px;letter-spacing:0.140229px;fill:#00294d;fill-opacity:1;stroke-width:0.269487"
         id="path3420" /><path
         d="m 139.50197,119.40672 -1.51578,-1.61188 3.27874,-13.00867 -0.0271,-0.0287 -8.23209,7.74128 -1.46163,-1.55431 10.64989,-10.01494 1.59698,1.69823 -3.23042,12.8005 0.0271,0.0288 8.10256,-7.61948 1.46163,1.55431 z"
         style="font-size:19.7556px;letter-spacing:-0.994833px;word-spacing:0px;fill:#00294d;fill-opacity:1;stroke-width:0.264583"
         id="path3422" /><path
         d="m 157.51432,119.52277 -3.19082,-0.82664 -0.006,-0.76722 2.86111,0.32547 z m -6.10866,6.64257 c -1.34693,0.82679 -2.80837,1.05163 -4.38432,0.67452 -1.56473,-0.38399 -2.77771,-1.27752 -3.63895,-2.68058 -0.84746,-1.38061 -1.0917,-2.86105 -0.73271,-4.44134 0.37022,-1.58717 1.24002,-2.80105 2.60941,-3.64162 1.35816,-0.83367 2.80621,-1.04257 4.34415,-0.62668 1.55606,0.42023 2.75438,1.31503 3.59495,2.68441 0.84745,1.38061 1.10291,2.85417 0.76636,4.42068 -0.33654,1.5665 -1.1895,2.77004 -2.55889,3.61061 z m -4.10945,-0.75609 c 1.15734,0.25594 2.23472,0.0778 3.23215,-0.53447 0.99742,-0.61224 1.63164,-1.48472 1.90269,-2.61745 0.27105,-1.13273 0.10049,-2.1978 -0.51178,-3.19522 -0.61226,-0.99741 -1.49089,-1.62787 -2.63594,-1.89137 -1.13272,-0.27105 -2.19779,-0.10049 -3.19522,0.51181 -0.99741,0.61224 -1.63781,1.48851 -1.92116,2.6288 -0.28336,1.14028 -0.11892,2.20913 0.49332,3.20654 0.61224,0.99742 1.49089,1.62787 2.63594,1.89136 z"
         style="font-size:19.7556px;letter-spacing:-0.994833px;word-spacing:0px;fill:#00294d;fill-opacity:1;stroke-width:0.264583"
         id="path3424"
         sodipodi:nodetypes="cccccscscscssscssscsssc" /><path
         d="m 158.88326,135.703 q -3.09043,0.9048 -4.81554,-1.47201 -0.48192,-0.66171 -0.66511,-1.28739 l -4.08384,5.45672 -0.74937,-2.55955 5.14875,-6.53015 -0.0111,-0.0379 -6.50318,1.90397 -0.5995,-2.04765 14.03019,-4.10769 1.27116,4.34178 q 0.74383,2.5406 -0.0819,4.07922 -0.85492,1.65008 -2.94049,2.26067 z m -0.59949,-2.04765 q 1.2703,-0.3719 1.66744,-1.47626 0.42166,-1.09094 0.0386,-2.39916 l -0.63281,-2.1614 -5.3656,1.57091 0.41076,1.40302 q 0.22204,0.75838 0.51899,1.35075 0.31589,0.58682 0.77237,1.0913 0.45647,0.50449 1.12518,0.67924 0.66871,0.17474 1.46502,-0.0584 z"
         style="font-size:19.7556px;letter-spacing:-0.994833px;word-spacing:0px;fill:#00294d;fill-opacity:1;stroke-width:0.264583"
         id="path3426" /><path
         d="m 149.48347,141.14126 -0.0856,-2.13193 14.88288,-0.57608 0.0856,2.13193 z"
         style="font-size:19.7556px;letter-spacing:-0.994833px;word-spacing:0px;fill:#00294d;fill-opacity:1;stroke-width:0.267063"
         id="path3428" /><path
         d="m 156.53075,158.46849 q -3.10887,-0.27915 -5.11299,-2.70046 -2.00412,-2.42132 -1.72321,-5.54987 0.28092,-3.12855 2.68432,-5.15411 2.42308,-2.0238 5.55164,-1.74289 3.14823,0.28269 5.15411,2.68432 2.00412,2.42132 1.72144,5.56955 -0.28621,3.18758 -2.68609,5.17379 -2.40163,2.00588 -5.58922,1.71967 z m 0.17114,-2.12682 q 2.36117,0.21201 4.15356,-1.19402 1.7924,-1.40603 2.00264,-3.74753 0.15194,-1.69217 -0.59721,-3.06856 -0.75093,-1.3567 -2.2453,-2.16528 -1.13465,-0.61759 -2.27588,-0.72006 -1.14124,-0.10247 -2.40711,0.29958 -1.5966,0.55087 -2.5772,1.7521 -0.9627,1.22267 -1.11287,2.89517 -0.16077,1.79056 0.66532,3.19368 0.84401,1.42457 2.47965,2.20616 0.93057,0.46042 1.9144,0.54876 z"
         style="font-size:19.7556px;letter-spacing:-0.994833px;word-spacing:0px;fill:#00294d;fill-opacity:1;stroke-width:0.264583"
         id="path3430" /></g><g
       id="g4618"
       inkscape:label="Marechal Hermes"
       style="fill:#053259;fill-opacity:1"><path
         d="m 59.826031,175.0622 -0.432975,-1.2209 7.065355,-2.50564 -0.01202,-0.034 -8.063605,-0.30919 -0.260587,-0.73479 6.063098,-5.3318 -0.008,-0.0226 -7.065356,2.50564 -0.432974,-1.2209 8.36538,-2.96668 0.681537,1.92178 -5.519687,4.78274 7.303706,0.24779 0.681535,1.92178 z"
         id="path4561"
         style="font-size:11.9944px;font-family:'ITC Avant Garde Gothic Std';-inkscape-font-specification:'ITC Avant Garde Gothic Std';letter-spacing:1.05833px;fill:#00294d;fill-opacity:1;stroke-width:0.264583" /><path
         d="m 64.35774,182.71526 -0.756921,-1.15313 1.646204,-2.25709 -1.750791,-2.66722 -2.725638,0.61264 -0.750339,-1.14311 9.269618,-2.05297 0.638446,0.97262 z m 1.638441,-4.43283 2.218986,-2.80524 -0.01317,-0.02 -3.462968,0.9101 z"
         id="path4563"
         style="font-size:11.9944px;font-family:'ITC Avant Garde Gothic Std';-inkscape-font-specification:'ITC Avant Garde Gothic Std';letter-spacing:1.05833px;fill:#00294d;fill-opacity:1;stroke-width:0.264583" /><path
         d="m 74.403195,183.41373 q -1.281795,1.47626 -2.942944,0.82818 -0.463309,-0.17989 -0.762186,-0.4394 l -0.295634,4.12749 -1.222675,-1.0616 0.487403,-5.02527 -0.01812,-0.0157 -2.697276,3.1065 -0.97814,-0.84929 5.819196,-6.70207 2.074019,1.8008 q 1.213619,1.05375 1.296646,2.11069 0.10472,1.12343 -0.760294,2.11969 z m -0.97814,-0.84929 q 0.526873,-0.60681 0.367377,-1.30126 -0.142577,-0.69565 -0.7675,-1.23825 l -1.032481,-0.89646 -2.22545,2.56309 0.670208,0.58191 q 0.362274,0.31455 0.708333,0.51972 0.353923,0.19611 0.752642,0.30403 0.398719,0.10792 0.797655,-0.0223 0.398936,-0.13016 0.729214,-0.51055 z"
         id="path4565"
         style="font-size:11.9944px;font-family:'ITC Avant Garde Gothic Std';-inkscape-font-specification:'ITC Avant Garde Gothic Std';letter-spacing:1.05833px;fill:#00294d;fill-opacity:1;stroke-width:0.264583" /><path
         d="m 75.351183,192.35302 -3.893405,-3.01177 5.585751,-7.22086 3.893405,3.01177 -0.747283,0.96604 -2.839551,-2.19657 -1.645532,2.12723 2.839553,2.19656 -0.747284,0.96603 -2.839552,-2.19656 -1.69837,2.19553 2.839552,2.19656 z"
         id="path4567"
         style="font-size:11.9944px;font-family:'ITC Avant Garde Gothic Std';-inkscape-font-specification:'ITC Avant Garde Gothic Std';letter-spacing:1.05833px;fill:#00294d;fill-opacity:1;stroke-width:0.272133" /><path
         d="m 88.534264,191.59176 -1.452117,-0.71812 q -0.419638,-1.65335 -1.748884,-2.31071 -1.295736,-0.64079 -2.647845,-0.15559 -1.340939,0.49072 -1.987256,1.79762 -0.635269,1.28456 -0.227898,2.6816 0.41854,1.40255 1.691935,2.03229 0.636698,0.31488 1.372341,0.31724 0.752337,-0.003 1.425386,-0.29604 l 1.485628,0.7347 q -1.105756,0.74605 -2.387151,0.83525 -1.270223,0.0947 -2.454257,-0.49081 -1.753711,-0.86729 -2.375022,-2.75938 -0.604616,-1.89773 0.268187,-3.66263 0.878328,-1.77605 2.731386,-2.40276 1.864228,-0.62119 3.629109,0.25162 1.407438,0.69604 2.126716,2.05268 0.483245,0.9063 0.549742,2.09304 z"
         id="path4569"
         style="font-size:11.9944px;font-family:'ITC Avant Garde Gothic Std';-inkscape-font-specification:'ITC Avant Garde Gothic Std';letter-spacing:1.05833px;fill:#00294d;fill-opacity:1;stroke-width:0.274885" /><path
         d="m 94.350135,199.68091 -1.307889,-0.32933 0.981912,-3.89944 -3.693575,-0.93007 -0.981912,3.89944 -1.307889,-0.32934 2.256569,-8.96145 1.307888,0.32933 -0.972763,3.86312 3.693575,0.93007 0.972764,-3.86312 1.307888,0.32934 z"
         id="path4571"
         style="font-size:11.9944px;font-family:'ITC Avant Garde Gothic Std';-inkscape-font-specification:'ITC Avant Garde Gothic Std';letter-spacing:1.05833px;fill:#00294d;fill-opacity:1;stroke-width:0.275474" /><path
         d="m 104.03792,201.81496 -1.44794,-0.26123 -0.53723,-2.93109 -3.34917,-0.60426 -1.527671,2.55854 -1.435355,-0.25899 5.219066,-8.67886 1.2213,0.22034 z m -2.22614,-4.52286 -0.54065,-3.77674 -0.0251,-0.005 -1.839002,3.3474 z"
         id="path4573"
         style="font-size:11.9944px;font-family:'ITC Avant Garde Gothic Std';-inkscape-font-specification:'ITC Avant Garde Gothic Std';letter-spacing:1.05833px;fill:#00294d;fill-opacity:1;stroke-width:0.282224" /><path
         d="m 110.74853,201.38663 -4.60379,-0.0889 0.18014,-9.3337 1.36221,0.0263 -0.15603,8.08501 3.24157,0.0626 z"
         id="path4575"
         style="font-size:11.9944px;font-family:'ITC Avant Garde Gothic Std';-inkscape-font-specification:'ITC Avant Garde Gothic Std';letter-spacing:1.05833px;fill:#00294d;fill-opacity:1;stroke-width:0.278283" /><path
         d="m 126.17195,198.35379 -1.30488,0.47601 -1.4192,-3.89049 -3.68509,1.34428 1.4192,3.89049 -1.3049,0.476 -3.26149,-8.94088 1.30488,-0.47599 1.40598,3.85423 3.68509,-1.34427 -1.40598,-3.85425 1.30489,-0.47599 z"
         id="path4577"
         style="font-size:11.9944px;font-family:'ITC Avant Garde Gothic Std';-inkscape-font-specification:'ITC Avant Garde Gothic Std';letter-spacing:1.05833px;fill:#00294d;fill-opacity:1;stroke-width:0.2837" /><path
         d="m 133.54725,194.41999 -4.26123,2.65853 -4.9306,-7.90305 4.26123,-2.65852 0.65964,1.0573 -3.10783,1.93893 1.45254,2.32818 3.10781,-1.93892 0.65964,1.0573 -3.10782,1.93892 1.49917,2.40295 3.10782,-1.93892 z"
         id="path4579"
         style="font-size:11.9944px;font-family:'ITC Avant Garde Gothic Std';-inkscape-font-specification:'ITC Avant Garde Gothic Std';letter-spacing:1.05833px;fill:#00294d;fill-opacity:1;stroke-width:0.277673" /><path
         d="m 136.96086,184.67009 q 1.16275,1.6952 0.0634,3.21388 -0.30573,0.42382 -0.64894,0.65923 l 4.12164,1.39376 -1.404,0.96303 -4.9844,-1.82664 -0.0207,0.0142 2.4468,3.56721 -1.12321,0.77041 -5.27879,-7.69602 2.3816,-1.63358 q 1.39361,-0.95588 2.49109,-0.76049 1.17088,0.19093 1.95556,1.33494 z m -1.1232,0.77041 q -0.47794,-0.6968 -1.22682,-0.71839 -0.7456,-0.039 -1.46321,0.45308 l -1.18561,0.81322 2.01879,2.94321 0.76961,-0.52787 q 0.41599,-0.28536 0.71639,-0.58315 0.29327,-0.30821 0.50866,-0.68535 0.2154,-0.37714 0.1886,-0.81754 -0.0268,-0.44041 -0.32641,-0.87721 z"
         id="path4581"
         style="font-size:11.9944px;font-family:'ITC Avant Garde Gothic Std';-inkscape-font-specification:'ITC Avant Garde Gothic Std';letter-spacing:1.05833px;fill:#00294d;fill-opacity:1;stroke-width:0.278193" /><path
         d="m 149.10358,181.44065 -0.90119,0.95944 -5.55234,-5.21517 -0.025,0.0266 3.47463,7.42722 -0.54238,0.57744 -7.63841,-2.99423 -0.0168,0.0178 5.55235,5.21516 -0.90119,0.95945 -6.57398,-6.17476 1.41853,-1.51024 6.88952,2.75901 -3.17631,-6.71228 1.41852,-1.51023 z"
         id="path4583"
         style="font-size:11.9944px;font-family:'ITC Avant Garde Gothic Std';-inkscape-font-specification:'ITC Avant Garde Gothic Std';letter-spacing:1.05833px;fill:#00294d;fill-opacity:1;stroke-width:0.268854" /><path
         d="m 153.67157,174.49891 -2.49817,4.27795 -7.93404,-4.63317 2.49817,-4.27794 1.06144,0.61984 -1.82197,3.12001 2.33733,1.36491 1.82197,-3.12002 1.06144,0.61984 -1.82197,3.12002 2.41238,1.40873 1.82197,-3.12 z"
         id="path4585"
         style="font-size:11.9944px;font-family:'ITC Avant Garde Gothic Std';-inkscape-font-specification:'ITC Avant Garde Gothic Std';letter-spacing:1.05833px;fill:#00294d;fill-opacity:1;stroke-width:0.273882" /><path
         d="m 154.60009,167.0688 q 1.08449,0.63765 1.3624,1.74452 0.26695,1.10041 -0.37071,2.1849 -0.65053,1.10639 -1.78574,1.38237 -1.12878,0.26503 -2.23517,-0.3855 l 0.69563,-1.18308 q 0.62439,0.36713 1.25773,0.26779 0.62237,-0.10584 0.98307,-0.71923 0.35425,-0.6025 0.17695,-1.17846 -0.17729,-0.57598 -0.77978,-0.93024 -0.29577,-0.1739 -0.56187,-0.19769 -0.27061,-0.0412 -0.51157,0.0678 -0.24545,0.0915 -0.46643,0.24171 -0.21452,0.1392 -0.46126,0.33319 -0.0606,0.0529 -0.0908,0.0793 -0.41552,0.33061 -0.60814,0.48269 -0.19712,0.1347 -0.55467,0.36672 -0.35755,0.23202 -0.60108,0.29521 -0.24354,0.0631 -0.57663,0.10319 -0.34406,0.0336 -0.69586,-0.0701 -0.34538,-0.11462 -0.72878,-0.34006 -0.93112,-0.54748 -1.18002,-1.57832 -0.24246,-1.04179 0.31146,-1.98387 0.59901,-1.01876 1.60343,-1.29794 0.9999,-0.29657 2.01867,0.30245 l -0.69563,1.18307 q -0.52581,-0.30917 -1.02384,-0.18923 -0.50897,0.11349 -0.81814,0.6393 -0.25764,0.43818 -0.12224,0.96004 0.14185,0.5109 0.59098,0.77499 0.35054,0.20611 0.70747,0.15063 0.34598,-0.0619 0.66874,-0.28491 0.32919,-0.23395 0.68608,-0.54006 0.34593,-0.31256 0.75759,-0.58646 0.4007,-0.28036 0.833,-0.43894 0.43874,-0.16953 1.01476,-0.0962 0.57602,0.0733 1.20042,0.44048 z"
         id="path4587"
         style="font-size:11.9944px;font-family:'ITC Avant Garde Gothic Std';-inkscape-font-specification:'ITC Avant Garde Gothic Std';letter-spacing:1.05833px;fill:#00294d;fill-opacity:1;stroke-width:0.280317" /></g></g></svg>
